<?xml version="1.0" encoding="utf-8" standalone="no"?>
<!DOCTYPE svg PUBLIC "-//W3C//DTD SVG 1.1//EN"
  "http://www.w3.org/Graphics/SVG/1.1/DTD/svg11.dtd">
<!-- Created with matplotlib (https://matplotlib.org/) -->
<svg height="345.6pt" version="1.1" viewBox="0 0 460.8 345.6" width="460.8pt" xmlns="http://www.w3.org/2000/svg" xmlns:xlink="http://www.w3.org/1999/xlink">
 <metadata>
  <rdf:RDF xmlns:cc="http://creativecommons.org/ns#" xmlns:dc="http://purl.org/dc/elements/1.1/" xmlns:rdf="http://www.w3.org/1999/02/22-rdf-syntax-ns#">
   <cc:Work>
    <dc:type rdf:resource="http://purl.org/dc/dcmitype/StillImage"/>
    <dc:date>2021-01-26T17:15:36.509560</dc:date>
    <dc:format>image/svg+xml</dc:format>
    <dc:creator>
     <cc:Agent>
      <dc:title>Matplotlib v3.3.2, https://matplotlib.org/</dc:title>
     </cc:Agent>
    </dc:creator>
   </cc:Work>
  </rdf:RDF>
 </metadata>
 <defs>
  <style type="text/css">*{stroke-linecap:butt;stroke-linejoin:round;}</style>
 </defs>
 <g id="figure_1">
  <g id="patch_1">
   <path d="M 0 345.6 
L 460.8 345.6 
L 460.8 0 
L 0 0 
z
" style="fill:#ffffff;"/>
  </g>
  <g id="axes_1">
   <g id="patch_2">
    <path d="M 57.6 307.584 
L 414.72 307.584 
L 414.72 41.472 
L 57.6 41.472 
z
" style="fill:#ffffff;"/>
   </g>
   <g id="matplotlib.axis_1">
    <g id="xtick_1">
     <g id="line2d_1">
      <defs>
       <path d="M 0 0 
L 0 3.5 
" id="m8546b88e9f" style="stroke:#000000;stroke-width:0.8;"/>
      </defs>
      <g>
       <use style="stroke:#000000;stroke-width:0.8;" x="414.72" xlink:href="#m8546b88e9f" y="307.584"/>
      </g>
     </g>
     <g id="text_1">
      <!-- 150 -->
      <g transform="translate(405.17625 322.182437)scale(0.1 -0.1)">
       <defs>
        <path d="M 12.40625 8.296875 
L 28.515625 8.296875 
L 28.515625 63.921875 
L 10.984375 60.40625 
L 10.984375 69.390625 
L 28.421875 72.90625 
L 38.28125 72.90625 
L 38.28125 8.296875 
L 54.390625 8.296875 
L 54.390625 0 
L 12.40625 0 
z
" id="DejaVuSans-49"/>
        <path d="M 10.796875 72.90625 
L 49.515625 72.90625 
L 49.515625 64.59375 
L 19.828125 64.59375 
L 19.828125 46.734375 
Q 21.96875 47.46875 24.109375 47.828125 
Q 26.265625 48.1875 28.421875 48.1875 
Q 40.625 48.1875 47.75 41.5 
Q 54.890625 34.8125 54.890625 23.390625 
Q 54.890625 11.625 47.5625 5.09375 
Q 40.234375 -1.421875 26.90625 -1.421875 
Q 22.3125 -1.421875 17.546875 -0.640625 
Q 12.796875 0.140625 7.71875 1.703125 
L 7.71875 11.625 
Q 12.109375 9.234375 16.796875 8.0625 
Q 21.484375 6.890625 26.703125 6.890625 
Q 35.15625 6.890625 40.078125 11.328125 
Q 45.015625 15.765625 45.015625 23.390625 
Q 45.015625 31 40.078125 35.4375 
Q 35.15625 39.890625 26.703125 39.890625 
Q 22.75 39.890625 18.8125 39.015625 
Q 14.890625 38.140625 10.796875 36.28125 
z
" id="DejaVuSans-53"/>
        <path d="M 31.78125 66.40625 
Q 24.171875 66.40625 20.328125 58.90625 
Q 16.5 51.421875 16.5 36.375 
Q 16.5 21.390625 20.328125 13.890625 
Q 24.171875 6.390625 31.78125 6.390625 
Q 39.453125 6.390625 43.28125 13.890625 
Q 47.125 21.390625 47.125 36.375 
Q 47.125 51.421875 43.28125 58.90625 
Q 39.453125 66.40625 31.78125 66.40625 
z
M 31.78125 74.21875 
Q 44.046875 74.21875 50.515625 64.515625 
Q 56.984375 54.828125 56.984375 36.375 
Q 56.984375 17.96875 50.515625 8.265625 
Q 44.046875 -1.421875 31.78125 -1.421875 
Q 19.53125 -1.421875 13.0625 8.265625 
Q 6.59375 17.96875 6.59375 36.375 
Q 6.59375 54.828125 13.0625 64.515625 
Q 19.53125 74.21875 31.78125 74.21875 
z
" id="DejaVuSans-48"/>
       </defs>
       <use xlink:href="#DejaVuSans-49"/>
       <use x="63.623047" xlink:href="#DejaVuSans-53"/>
       <use x="127.246094" xlink:href="#DejaVuSans-48"/>
      </g>
     </g>
    </g>
    <g id="xtick_2">
     <g id="line2d_2">
      <g>
       <use style="stroke:#000000;stroke-width:0.8;" x="370.08" xlink:href="#m8546b88e9f" y="307.584"/>
      </g>
     </g>
     <g id="text_2">
      <!-- 175 -->
      <g transform="translate(360.53625 322.182437)scale(0.1 -0.1)">
       <defs>
        <path d="M 8.203125 72.90625 
L 55.078125 72.90625 
L 55.078125 68.703125 
L 28.609375 0 
L 18.3125 0 
L 43.21875 64.59375 
L 8.203125 64.59375 
z
" id="DejaVuSans-55"/>
       </defs>
       <use xlink:href="#DejaVuSans-49"/>
       <use x="63.623047" xlink:href="#DejaVuSans-55"/>
       <use x="127.246094" xlink:href="#DejaVuSans-53"/>
      </g>
     </g>
    </g>
    <g id="xtick_3">
     <g id="line2d_3">
      <g>
       <use style="stroke:#000000;stroke-width:0.8;" x="325.44" xlink:href="#m8546b88e9f" y="307.584"/>
      </g>
     </g>
     <g id="text_3">
      <!-- 200 -->
      <g transform="translate(315.89625 322.182437)scale(0.1 -0.1)">
       <defs>
        <path d="M 19.1875 8.296875 
L 53.609375 8.296875 
L 53.609375 0 
L 7.328125 0 
L 7.328125 8.296875 
Q 12.9375 14.109375 22.625 23.890625 
Q 32.328125 33.6875 34.8125 36.53125 
Q 39.546875 41.84375 41.421875 45.53125 
Q 43.3125 49.21875 43.3125 52.78125 
Q 43.3125 58.59375 39.234375 62.25 
Q 35.15625 65.921875 28.609375 65.921875 
Q 23.96875 65.921875 18.8125 64.3125 
Q 13.671875 62.703125 7.8125 59.421875 
L 7.8125 69.390625 
Q 13.765625 71.78125 18.9375 73 
Q 24.125 74.21875 28.421875 74.21875 
Q 39.75 74.21875 46.484375 68.546875 
Q 53.21875 62.890625 53.21875 53.421875 
Q 53.21875 48.921875 51.53125 44.890625 
Q 49.859375 40.875 45.40625 35.40625 
Q 44.1875 33.984375 37.640625 27.21875 
Q 31.109375 20.453125 19.1875 8.296875 
z
" id="DejaVuSans-50"/>
       </defs>
       <use xlink:href="#DejaVuSans-50"/>
       <use x="63.623047" xlink:href="#DejaVuSans-48"/>
       <use x="127.246094" xlink:href="#DejaVuSans-48"/>
      </g>
     </g>
    </g>
    <g id="xtick_4">
     <g id="line2d_4">
      <g>
       <use style="stroke:#000000;stroke-width:0.8;" x="280.8" xlink:href="#m8546b88e9f" y="307.584"/>
      </g>
     </g>
     <g id="text_4">
      <!-- 225 -->
      <g transform="translate(271.25625 322.182437)scale(0.1 -0.1)">
       <use xlink:href="#DejaVuSans-50"/>
       <use x="63.623047" xlink:href="#DejaVuSans-50"/>
       <use x="127.246094" xlink:href="#DejaVuSans-53"/>
      </g>
     </g>
    </g>
    <g id="xtick_5">
     <g id="line2d_5">
      <g>
       <use style="stroke:#000000;stroke-width:0.8;" x="236.16" xlink:href="#m8546b88e9f" y="307.584"/>
      </g>
     </g>
     <g id="text_5">
      <!-- 250 -->
      <g transform="translate(226.61625 322.182437)scale(0.1 -0.1)">
       <use xlink:href="#DejaVuSans-50"/>
       <use x="63.623047" xlink:href="#DejaVuSans-53"/>
       <use x="127.246094" xlink:href="#DejaVuSans-48"/>
      </g>
     </g>
    </g>
    <g id="xtick_6">
     <g id="line2d_6">
      <g>
       <use style="stroke:#000000;stroke-width:0.8;" x="191.52" xlink:href="#m8546b88e9f" y="307.584"/>
      </g>
     </g>
     <g id="text_6">
      <!-- 275 -->
      <g transform="translate(181.97625 322.182437)scale(0.1 -0.1)">
       <use xlink:href="#DejaVuSans-50"/>
       <use x="63.623047" xlink:href="#DejaVuSans-55"/>
       <use x="127.246094" xlink:href="#DejaVuSans-53"/>
      </g>
     </g>
    </g>
    <g id="xtick_7">
     <g id="line2d_7">
      <g>
       <use style="stroke:#000000;stroke-width:0.8;" x="146.88" xlink:href="#m8546b88e9f" y="307.584"/>
      </g>
     </g>
     <g id="text_7">
      <!-- 300 -->
      <g transform="translate(137.33625 322.182437)scale(0.1 -0.1)">
       <defs>
        <path d="M 40.578125 39.3125 
Q 47.65625 37.796875 51.625 33 
Q 55.609375 28.21875 55.609375 21.1875 
Q 55.609375 10.40625 48.1875 4.484375 
Q 40.765625 -1.421875 27.09375 -1.421875 
Q 22.515625 -1.421875 17.65625 -0.515625 
Q 12.796875 0.390625 7.625 2.203125 
L 7.625 11.71875 
Q 11.71875 9.328125 16.59375 8.109375 
Q 21.484375 6.890625 26.8125 6.890625 
Q 36.078125 6.890625 40.9375 10.546875 
Q 45.796875 14.203125 45.796875 21.1875 
Q 45.796875 27.640625 41.28125 31.265625 
Q 36.765625 34.90625 28.71875 34.90625 
L 20.21875 34.90625 
L 20.21875 43.015625 
L 29.109375 43.015625 
Q 36.375 43.015625 40.234375 45.921875 
Q 44.09375 48.828125 44.09375 54.296875 
Q 44.09375 59.90625 40.109375 62.90625 
Q 36.140625 65.921875 28.71875 65.921875 
Q 24.65625 65.921875 20.015625 65.03125 
Q 15.375 64.15625 9.8125 62.3125 
L 9.8125 71.09375 
Q 15.4375 72.65625 20.34375 73.4375 
Q 25.25 74.21875 29.59375 74.21875 
Q 40.828125 74.21875 47.359375 69.109375 
Q 53.90625 64.015625 53.90625 55.328125 
Q 53.90625 49.265625 50.4375 45.09375 
Q 46.96875 40.921875 40.578125 39.3125 
z
" id="DejaVuSans-51"/>
       </defs>
       <use xlink:href="#DejaVuSans-51"/>
       <use x="63.623047" xlink:href="#DejaVuSans-48"/>
       <use x="127.246094" xlink:href="#DejaVuSans-48"/>
      </g>
     </g>
    </g>
    <g id="xtick_8">
     <g id="line2d_8">
      <g>
       <use style="stroke:#000000;stroke-width:0.8;" x="102.24" xlink:href="#m8546b88e9f" y="307.584"/>
      </g>
     </g>
     <g id="text_8">
      <!-- 325 -->
      <g transform="translate(92.69625 322.182437)scale(0.1 -0.1)">
       <use xlink:href="#DejaVuSans-51"/>
       <use x="63.623047" xlink:href="#DejaVuSans-50"/>
       <use x="127.246094" xlink:href="#DejaVuSans-53"/>
      </g>
     </g>
    </g>
    <g id="xtick_9">
     <g id="line2d_9">
      <g>
       <use style="stroke:#000000;stroke-width:0.8;" x="57.6" xlink:href="#m8546b88e9f" y="307.584"/>
      </g>
     </g>
     <g id="text_9">
      <!-- 350 -->
      <g transform="translate(48.05625 322.182437)scale(0.1 -0.1)">
       <use xlink:href="#DejaVuSans-51"/>
       <use x="63.623047" xlink:href="#DejaVuSans-53"/>
       <use x="127.246094" xlink:href="#DejaVuSans-48"/>
      </g>
     </g>
    </g>
    <g id="text_10">
     <!-- [ppm] -->
     <g transform="translate(221.039687 335.860562)scale(0.1 -0.1)">
      <defs>
       <path d="M 8.59375 75.984375 
L 29.296875 75.984375 
L 29.296875 69 
L 17.578125 69 
L 17.578125 -6.203125 
L 29.296875 -6.203125 
L 29.296875 -13.1875 
L 8.59375 -13.1875 
z
" id="DejaVuSans-91"/>
       <path d="M 18.109375 8.203125 
L 18.109375 -20.796875 
L 9.078125 -20.796875 
L 9.078125 54.6875 
L 18.109375 54.6875 
L 18.109375 46.390625 
Q 20.953125 51.265625 25.265625 53.625 
Q 29.59375 56 35.59375 56 
Q 45.5625 56 51.78125 48.09375 
Q 58.015625 40.1875 58.015625 27.296875 
Q 58.015625 14.40625 51.78125 6.484375 
Q 45.5625 -1.421875 35.59375 -1.421875 
Q 29.59375 -1.421875 25.265625 0.953125 
Q 20.953125 3.328125 18.109375 8.203125 
z
M 48.6875 27.296875 
Q 48.6875 37.203125 44.609375 42.84375 
Q 40.53125 48.484375 33.40625 48.484375 
Q 26.265625 48.484375 22.1875 42.84375 
Q 18.109375 37.203125 18.109375 27.296875 
Q 18.109375 17.390625 22.1875 11.75 
Q 26.265625 6.109375 33.40625 6.109375 
Q 40.53125 6.109375 44.609375 11.75 
Q 48.6875 17.390625 48.6875 27.296875 
z
" id="DejaVuSans-112"/>
       <path d="M 52 44.1875 
Q 55.375 50.25 60.0625 53.125 
Q 64.75 56 71.09375 56 
Q 79.640625 56 84.28125 50.015625 
Q 88.921875 44.046875 88.921875 33.015625 
L 88.921875 0 
L 79.890625 0 
L 79.890625 32.71875 
Q 79.890625 40.578125 77.09375 44.375 
Q 74.3125 48.1875 68.609375 48.1875 
Q 61.625 48.1875 57.5625 43.546875 
Q 53.515625 38.921875 53.515625 30.90625 
L 53.515625 0 
L 44.484375 0 
L 44.484375 32.71875 
Q 44.484375 40.625 41.703125 44.40625 
Q 38.921875 48.1875 33.109375 48.1875 
Q 26.21875 48.1875 22.15625 43.53125 
Q 18.109375 38.875 18.109375 30.90625 
L 18.109375 0 
L 9.078125 0 
L 9.078125 54.6875 
L 18.109375 54.6875 
L 18.109375 46.1875 
Q 21.1875 51.21875 25.484375 53.609375 
Q 29.78125 56 35.6875 56 
Q 41.65625 56 45.828125 52.96875 
Q 50 49.953125 52 44.1875 
z
" id="DejaVuSans-109"/>
       <path d="M 30.421875 75.984375 
L 30.421875 -13.1875 
L 9.71875 -13.1875 
L 9.71875 -6.203125 
L 21.390625 -6.203125 
L 21.390625 69 
L 9.71875 69 
L 9.71875 75.984375 
z
" id="DejaVuSans-93"/>
      </defs>
      <use xlink:href="#DejaVuSans-91"/>
      <use x="39.013672" xlink:href="#DejaVuSans-112"/>
      <use x="102.490234" xlink:href="#DejaVuSans-112"/>
      <use x="165.966797" xlink:href="#DejaVuSans-109"/>
      <use x="263.378906" xlink:href="#DejaVuSans-93"/>
     </g>
    </g>
   </g>
   <g id="matplotlib.axis_2">
    <g id="ytick_1">
     <g id="line2d_10">
      <defs>
       <path d="M 0 0 
L -3.5 0 
" id="m328ca4194f" style="stroke:#000000;stroke-width:0.8;"/>
      </defs>
      <g>
       <use style="stroke:#000000;stroke-width:0.8;" x="57.6" xlink:href="#m328ca4194f" y="301.072631"/>
      </g>
     </g>
     <g id="text_11">
      <!-- 0.0 -->
      <g transform="translate(34.696875 304.871849)scale(0.1 -0.1)">
       <defs>
        <path d="M 10.6875 12.40625 
L 21 12.40625 
L 21 0 
L 10.6875 0 
z
" id="DejaVuSans-46"/>
       </defs>
       <use xlink:href="#DejaVuSans-48"/>
       <use x="63.623047" xlink:href="#DejaVuSans-46"/>
       <use x="95.410156" xlink:href="#DejaVuSans-48"/>
      </g>
     </g>
    </g>
    <g id="ytick_2">
     <g id="line2d_11">
      <g>
       <use style="stroke:#000000;stroke-width:0.8;" x="57.6" xlink:href="#m328ca4194f" y="270.743816"/>
      </g>
     </g>
     <g id="text_12">
      <!-- 0.2 -->
      <g transform="translate(34.696875 274.543035)scale(0.1 -0.1)">
       <use xlink:href="#DejaVuSans-48"/>
       <use x="63.623047" xlink:href="#DejaVuSans-46"/>
       <use x="95.410156" xlink:href="#DejaVuSans-50"/>
      </g>
     </g>
    </g>
    <g id="ytick_3">
     <g id="line2d_12">
      <g>
       <use style="stroke:#000000;stroke-width:0.8;" x="57.6" xlink:href="#m328ca4194f" y="240.415002"/>
      </g>
     </g>
     <g id="text_13">
      <!-- 0.4 -->
      <g transform="translate(34.696875 244.21422)scale(0.1 -0.1)">
       <defs>
        <path d="M 37.796875 64.3125 
L 12.890625 25.390625 
L 37.796875 25.390625 
z
M 35.203125 72.90625 
L 47.609375 72.90625 
L 47.609375 25.390625 
L 58.015625 25.390625 
L 58.015625 17.1875 
L 47.609375 17.1875 
L 47.609375 0 
L 37.796875 0 
L 37.796875 17.1875 
L 4.890625 17.1875 
L 4.890625 26.703125 
z
" id="DejaVuSans-52"/>
       </defs>
       <use xlink:href="#DejaVuSans-48"/>
       <use x="63.623047" xlink:href="#DejaVuSans-46"/>
       <use x="95.410156" xlink:href="#DejaVuSans-52"/>
      </g>
     </g>
    </g>
    <g id="ytick_4">
     <g id="line2d_13">
      <g>
       <use style="stroke:#000000;stroke-width:0.8;" x="57.6" xlink:href="#m328ca4194f" y="210.086187"/>
      </g>
     </g>
     <g id="text_14">
      <!-- 0.6 -->
      <g transform="translate(34.696875 213.885406)scale(0.1 -0.1)">
       <defs>
        <path d="M 33.015625 40.375 
Q 26.375 40.375 22.484375 35.828125 
Q 18.609375 31.296875 18.609375 23.390625 
Q 18.609375 15.53125 22.484375 10.953125 
Q 26.375 6.390625 33.015625 6.390625 
Q 39.65625 6.390625 43.53125 10.953125 
Q 47.40625 15.53125 47.40625 23.390625 
Q 47.40625 31.296875 43.53125 35.828125 
Q 39.65625 40.375 33.015625 40.375 
z
M 52.59375 71.296875 
L 52.59375 62.3125 
Q 48.875 64.0625 45.09375 64.984375 
Q 41.3125 65.921875 37.59375 65.921875 
Q 27.828125 65.921875 22.671875 59.328125 
Q 17.53125 52.734375 16.796875 39.40625 
Q 19.671875 43.65625 24.015625 45.921875 
Q 28.375 48.1875 33.59375 48.1875 
Q 44.578125 48.1875 50.953125 41.515625 
Q 57.328125 34.859375 57.328125 23.390625 
Q 57.328125 12.15625 50.6875 5.359375 
Q 44.046875 -1.421875 33.015625 -1.421875 
Q 20.359375 -1.421875 13.671875 8.265625 
Q 6.984375 17.96875 6.984375 36.375 
Q 6.984375 53.65625 15.1875 63.9375 
Q 23.390625 74.21875 37.203125 74.21875 
Q 40.921875 74.21875 44.703125 73.484375 
Q 48.484375 72.75 52.59375 71.296875 
z
" id="DejaVuSans-54"/>
       </defs>
       <use xlink:href="#DejaVuSans-48"/>
       <use x="63.623047" xlink:href="#DejaVuSans-46"/>
       <use x="95.410156" xlink:href="#DejaVuSans-54"/>
      </g>
     </g>
    </g>
    <g id="ytick_5">
     <g id="line2d_14">
      <g>
       <use style="stroke:#000000;stroke-width:0.8;" x="57.6" xlink:href="#m328ca4194f" y="179.757373"/>
      </g>
     </g>
     <g id="text_15">
      <!-- 0.8 -->
      <g transform="translate(34.696875 183.556591)scale(0.1 -0.1)">
       <defs>
        <path d="M 31.78125 34.625 
Q 24.75 34.625 20.71875 30.859375 
Q 16.703125 27.09375 16.703125 20.515625 
Q 16.703125 13.921875 20.71875 10.15625 
Q 24.75 6.390625 31.78125 6.390625 
Q 38.8125 6.390625 42.859375 10.171875 
Q 46.921875 13.96875 46.921875 20.515625 
Q 46.921875 27.09375 42.890625 30.859375 
Q 38.875 34.625 31.78125 34.625 
z
M 21.921875 38.8125 
Q 15.578125 40.375 12.03125 44.71875 
Q 8.5 49.078125 8.5 55.328125 
Q 8.5 64.0625 14.71875 69.140625 
Q 20.953125 74.21875 31.78125 74.21875 
Q 42.671875 74.21875 48.875 69.140625 
Q 55.078125 64.0625 55.078125 55.328125 
Q 55.078125 49.078125 51.53125 44.71875 
Q 48 40.375 41.703125 38.8125 
Q 48.828125 37.15625 52.796875 32.3125 
Q 56.78125 27.484375 56.78125 20.515625 
Q 56.78125 9.90625 50.3125 4.234375 
Q 43.84375 -1.421875 31.78125 -1.421875 
Q 19.734375 -1.421875 13.25 4.234375 
Q 6.78125 9.90625 6.78125 20.515625 
Q 6.78125 27.484375 10.78125 32.3125 
Q 14.796875 37.15625 21.921875 38.8125 
z
M 18.3125 54.390625 
Q 18.3125 48.734375 21.84375 45.5625 
Q 25.390625 42.390625 31.78125 42.390625 
Q 38.140625 42.390625 41.71875 45.5625 
Q 45.3125 48.734375 45.3125 54.390625 
Q 45.3125 60.0625 41.71875 63.234375 
Q 38.140625 66.40625 31.78125 66.40625 
Q 25.390625 66.40625 21.84375 63.234375 
Q 18.3125 60.0625 18.3125 54.390625 
z
" id="DejaVuSans-56"/>
       </defs>
       <use xlink:href="#DejaVuSans-48"/>
       <use x="63.623047" xlink:href="#DejaVuSans-46"/>
       <use x="95.410156" xlink:href="#DejaVuSans-56"/>
      </g>
     </g>
    </g>
    <g id="ytick_6">
     <g id="line2d_15">
      <g>
       <use style="stroke:#000000;stroke-width:0.8;" x="57.6" xlink:href="#m328ca4194f" y="149.428558"/>
      </g>
     </g>
     <g id="text_16">
      <!-- 1.0 -->
      <g transform="translate(34.696875 153.227777)scale(0.1 -0.1)">
       <use xlink:href="#DejaVuSans-49"/>
       <use x="63.623047" xlink:href="#DejaVuSans-46"/>
       <use x="95.410156" xlink:href="#DejaVuSans-48"/>
      </g>
     </g>
    </g>
    <g id="ytick_7">
     <g id="line2d_16">
      <g>
       <use style="stroke:#000000;stroke-width:0.8;" x="57.6" xlink:href="#m328ca4194f" y="119.099744"/>
      </g>
     </g>
     <g id="text_17">
      <!-- 1.2 -->
      <g transform="translate(34.696875 122.898963)scale(0.1 -0.1)">
       <use xlink:href="#DejaVuSans-49"/>
       <use x="63.623047" xlink:href="#DejaVuSans-46"/>
       <use x="95.410156" xlink:href="#DejaVuSans-50"/>
      </g>
     </g>
    </g>
    <g id="ytick_8">
     <g id="line2d_17">
      <g>
       <use style="stroke:#000000;stroke-width:0.8;" x="57.6" xlink:href="#m328ca4194f" y="88.770929"/>
      </g>
     </g>
     <g id="text_18">
      <!-- 1.4 -->
      <g transform="translate(34.696875 92.570148)scale(0.1 -0.1)">
       <use xlink:href="#DejaVuSans-49"/>
       <use x="63.623047" xlink:href="#DejaVuSans-46"/>
       <use x="95.410156" xlink:href="#DejaVuSans-52"/>
      </g>
     </g>
    </g>
    <g id="ytick_9">
     <g id="line2d_18">
      <g>
       <use style="stroke:#000000;stroke-width:0.8;" x="57.6" xlink:href="#m328ca4194f" y="58.442115"/>
      </g>
     </g>
     <g id="text_19">
      <!-- 1.6 -->
      <g transform="translate(34.696875 62.241334)scale(0.1 -0.1)">
       <use xlink:href="#DejaVuSans-49"/>
       <use x="63.623047" xlink:href="#DejaVuSans-46"/>
       <use x="95.410156" xlink:href="#DejaVuSans-54"/>
      </g>
     </g>
    </g>
    <g id="text_20">
     <!--   -->
     <g transform="translate(28.617188 176.117063)rotate(-90)scale(0.1 -0.1)">
      <defs>
       <path id="DejaVuSans-32"/>
      </defs>
      <use xlink:href="#DejaVuSans-32"/>
     </g>
    </g>
    <g id="text_21">
     <!-- 1e6 -->
     <g transform="translate(57.6 38.472)scale(0.1 -0.1)">
      <defs>
       <path d="M 56.203125 29.59375 
L 56.203125 25.203125 
L 14.890625 25.203125 
Q 15.484375 15.921875 20.484375 11.0625 
Q 25.484375 6.203125 34.421875 6.203125 
Q 39.59375 6.203125 44.453125 7.46875 
Q 49.3125 8.734375 54.109375 11.28125 
L 54.109375 2.78125 
Q 49.265625 0.734375 44.1875 -0.34375 
Q 39.109375 -1.421875 33.890625 -1.421875 
Q 20.796875 -1.421875 13.15625 6.1875 
Q 5.515625 13.8125 5.515625 26.8125 
Q 5.515625 40.234375 12.765625 48.109375 
Q 20.015625 56 32.328125 56 
Q 43.359375 56 49.78125 48.890625 
Q 56.203125 41.796875 56.203125 29.59375 
z
M 47.21875 32.234375 
Q 47.125 39.59375 43.09375 43.984375 
Q 39.0625 48.390625 32.421875 48.390625 
Q 24.90625 48.390625 20.390625 44.140625 
Q 15.875 39.890625 15.1875 32.171875 
z
" id="DejaVuSans-101"/>
      </defs>
      <use xlink:href="#DejaVuSans-49"/>
      <use x="63.623047" xlink:href="#DejaVuSans-101"/>
      <use x="125.146484" xlink:href="#DejaVuSans-54"/>
     </g>
    </g>
   </g>
   <g id="line2d_19">
    <path clip-path="url(#p83d7c990e4)" d="M 414.962119 292.907959 
L 394.780156 292.227922 
L 378.335593 291.45859 
L 364.880951 290.610908 
L 353.66875 289.685278 
L 343.951508 288.654699 
L 335.729227 287.554315 
L 329.001906 286.445345 
L 323.022065 285.253797 
L 317.789704 284.008477 
L 312.557343 282.523289 
L 308.072463 281.01049 
L 304.335062 279.540152 
L 300.597662 277.836674 
L 296.860261 275.848916 
L 293.870341 274.010585 
L 290.88042 271.906563 
L 287.8905 269.48466 
L 285.648059 267.421087 
L 283.405619 265.109148 
L 281.163179 262.50923 
L 278.920738 259.574096 
L 276.678298 256.247278 
L 274.435858 252.461159 
L 272.193417 248.134748 
L 269.950977 243.171189 
L 267.708537 237.455163 
L 265.466096 230.850584 
L 263.223656 223.199385 
L 261.728696 217.429607 
L 260.233735 211.058703 
L 258.738775 204.028722 
L 256.496335 192.127229 
L 254.253894 178.465607 
L 252.011454 162.988127 
L 249.769014 145.832208 
L 245.284133 108.798032 
L 243.041693 91.30802 
L 241.546733 81.218186 
L 240.051772 73.062375 
L 239.304292 69.872061 
L 238.556812 67.342223 
L 237.809332 65.508752 
L 237.061852 64.392667 
L 236.314372 63.998997 
L 235.566892 64.31651 
L 234.819412 65.318315 
L 234.071931 66.963261 
L 233.324451 69.198005 
L 232.576971 71.959555 
L 231.082011 78.77966 
L 229.587051 86.832382 
L 223.60721 121.02949 
L 222.11225 128.305953 
L 220.617289 134.70633 
L 219.122329 140.183387 
L 217.627369 144.743428 
L 216.132409 148.434221 
L 214.637448 151.336175 
L 213.142488 153.556533 
L 211.647528 155.226053 
L 210.152568 156.497267 
L 205.667687 159.728284 
L 204.172727 161.267613 
L 202.677767 163.351829 
L 201.182806 166.12233 
L 199.687846 169.661201 
L 198.192886 173.97772 
L 196.697926 179.00638 
L 194.455485 187.5902 
L 186.233204 221.018306 
L 183.990764 228.841809 
L 181.748323 235.807183 
L 179.505883 241.934491 
L 177.263443 247.28957 
L 175.021002 251.957271 
L 172.778562 256.025594 
L 170.536122 259.577416 
L 168.293681 262.686883 
L 166.051241 265.418417 
L 163.808801 267.82706 
L 161.56636 269.959392 
L 158.57644 272.439582 
L 155.586519 274.573804 
L 152.596599 276.42263 
L 149.606678 278.034382 
L 145.869278 279.774001 
L 142.131877 281.262938 
L 137.646997 282.783022 
L 133.162116 284.069132 
L 127.929755 285.334695 
L 121.949914 286.537152 
L 115.222593 287.649298 
L 107.747792 288.656848 
L 98.778031 289.628053 
L 88.313309 290.520151 
L 76.353627 291.311492 
L 62.151505 292.029081 
L 56.919144 292.247806 
L 56.919144 292.247806 
" style="fill:none;stroke:#1f77b4;stroke-linecap:square;stroke-width:2;"/>
   </g>
   <g id="line2d_20">
    <path clip-path="url(#p83d7c990e4)" d="M 414.962119 292.934637 
L 394.780156 292.265589 
L 378.335593 291.510142 
L 364.880951 290.679367 
L 353.66875 289.773953 
L 343.951508 288.76785 
L 335.729227 287.695705 
L 329.001906 286.617229 
L 323.022065 285.460559 
L 317.789704 284.253877 
L 312.557343 282.817489 
L 308.072463 281.357236 
L 304.335062 279.940532 
L 300.597662 278.302146 
L 296.860261 276.394083 
L 293.870341 274.632793 
L 290.88042 272.620607 
L 287.8905 270.308899 
L 285.648059 268.342728 
L 283.405619 266.143465 
L 281.163179 263.674405 
L 278.920738 260.891838 
L 276.678298 257.74356 
L 274.435858 254.167104 
L 272.193417 250.08764 
L 269.950977 245.415591 
L 267.708537 240.044052 
L 265.466096 233.846282 
L 263.223656 226.673871 
L 261.728696 221.267615 
L 260.233735 215.297847 
L 258.738775 208.707033 
L 256.496335 197.530827 
L 254.253894 184.653241 
L 252.011454 169.965877 
L 249.769014 153.506279 
L 246.779093 129.378737 
L 243.041693 98.642299 
L 241.546733 87.57857 
L 240.051772 78.067121 
L 238.556812 70.672187 
L 237.809332 67.917163 
L 237.061852 65.8483 
L 236.314372 64.491553 
L 235.566892 63.857142 
L 234.819412 63.939005 
L 234.071931 64.715119 
L 233.324451 66.14866 
L 232.576971 68.189884 
L 231.829491 70.77854 
L 230.334531 77.321195 
L 228.839571 85.189874 
L 222.11225 123.158578 
L 220.617289 130.114099 
L 219.122329 136.17289 
L 217.627369 141.309084 
L 216.132409 145.546006 
L 214.637448 148.945145 
L 213.142488 151.598382 
L 211.647528 153.623169 
L 210.152568 155.159925 
L 208.657608 156.370542 
L 204.920207 159.19468 
L 203.425247 160.765907 
L 201.930286 162.871687 
L 200.435326 165.655541 
L 198.940366 169.202214 
L 197.445406 173.523871 
L 195.950446 178.557704 
L 193.708005 187.153724 
L 184.738244 223.399523 
L 182.495804 230.973218 
L 180.253363 237.68591 
L 178.010923 243.575903 
L 175.768482 248.717533 
L 173.526042 253.198133 
L 171.283602 257.104909 
L 169.041161 260.518397 
L 166.798721 263.509863 
L 164.556281 266.140838 
L 162.31384 268.463702 
L 160.0714 270.522699 
L 157.08148 272.921067 
L 154.091559 274.98821 
L 151.101639 276.781665 
L 148.111718 278.34739 
L 144.374318 280.039844 
L 140.636917 281.490622 
L 136.152036 282.973987 
L 131.667156 284.230897 
L 126.434795 285.469493 
L 120.454954 286.648038 
L 113.727633 287.739633 
L 106.252832 288.729935 
L 97.28307 289.685818 
L 86.818349 290.565037 
L 74.858667 291.345973 
L 59.909065 292.087209 
L 56.919144 292.211619 
L 56.919144 292.211619 
" style="fill:none;stroke:#ff7f0e;stroke-linecap:square;stroke-width:2;"/>
   </g>
   <g id="line2d_21">
    <path clip-path="url(#p83d7c990e4)" d="M 414.962119 292.966964 
L 394.032676 292.28231 
L 377.588113 291.533205 
L 364.133471 290.710213 
L 352.92127 289.814171 
L 343.204028 288.819488 
L 334.981747 287.760594 
L 327.506946 286.564964 
L 321.527105 285.398508 
L 316.294744 284.181137 
L 311.062383 282.731436 
L 306.577502 281.257042 
L 302.840102 279.826077 
L 299.102701 278.170581 
L 295.365301 276.241814 
L 292.37538 274.460727 
L 289.38546 272.425174 
L 286.395539 270.085708 
L 284.153099 268.095217 
L 281.910659 265.868034 
L 279.668218 263.366795 
L 277.425778 260.546992 
L 275.183338 257.35546 
L 272.940897 253.728569 
L 270.698457 249.590103 
L 268.456017 244.848837 
L 266.213576 239.395944 
L 263.971136 233.102514 
L 261.728696 225.817822 
L 260.233735 220.326363 
L 258.738775 214.262464 
L 257.243815 207.568276 
L 255.001375 196.219979 
L 252.758934 183.152951 
L 250.516494 168.267729 
L 248.274054 151.620042 
L 245.284133 127.312377 
L 241.546733 96.620868 
L 240.051772 85.703423 
L 238.556812 76.420059 
L 237.809332 72.56841 
L 237.061852 69.326014 
L 236.314372 66.742319 
L 235.566892 64.853773 
L 234.819412 63.681924 
L 234.071931 63.232272 
L 233.324451 63.49397 
L 232.576971 64.440395 
L 231.829491 66.030549 
L 231.082011 68.211129 
L 230.334531 70.91908 
L 228.839571 77.633093 
L 227.34461 85.579882 
L 221.364769 119.339075 
L 219.869809 126.508113 
L 218.374849 132.808594 
L 216.879889 138.198554 
L 215.384929 142.690262 
L 213.889968 146.337916 
L 212.395008 149.228732 
L 210.900048 151.47724 
L 209.405088 153.22207 
L 207.910127 154.624069 
L 204.172727 157.851082 
L 202.677767 159.553494 
L 201.182806 161.774199 
L 199.687846 164.657841 
L 198.192886 168.290722 
L 196.697926 172.686919 
L 195.202965 177.785711 
L 192.960525 186.465549 
L 184.738244 220.226923 
L 182.495804 228.132875 
L 180.253363 235.173522 
L 178.010923 241.368293 
L 175.768482 246.783115 
L 173.526042 251.503353 
L 171.283602 255.617726 
L 169.041161 259.209877 
L 166.798721 262.354695 
L 164.556281 265.117278 
L 162.31384 267.553262 
L 160.0714 269.709741 
L 157.08148 272.21791 
L 154.091559 274.376074 
L 151.101639 276.245502 
L 148.111718 277.875079 
L 144.374318 279.633753 
L 140.636917 281.138809 
L 136.152036 282.675121 
L 131.667156 283.974739 
L 126.434795 285.253348 
L 120.454954 286.467924 
L 113.727633 287.590986 
L 106.252832 288.608128 
L 97.28307 289.588256 
L 86.818349 290.488211 
L 74.858667 291.286192 
L 60.656545 292.009478 
L 56.919144 292.169061 
L 56.919144 292.169061 
" style="fill:none;stroke:#2ca02c;stroke-linecap:square;stroke-width:2;"/>
   </g>
   <g id="line2d_22">
    <path clip-path="url(#p83d7c990e4)" d="M 414.962119 293.011874 
L 394.032676 292.348273 
L 376.840633 291.587219 
L 363.385991 290.785084 
L 352.173789 289.914945 
L 342.456548 288.952705 
L 334.234267 287.932381 
L 326.759466 286.785026 
L 320.032145 285.51613 
L 314.052304 284.142818 
L 308.819943 282.697313 
L 304.335062 281.229446 
L 300.597662 279.806933 
L 296.860261 278.163734 
L 293.12286 276.252573 
L 290.13294 274.490742 
L 287.14302 272.480558 
L 284.153099 270.174446 
L 281.163179 267.513388 
L 278.920738 265.240994 
L 276.678298 262.690041 
L 274.435858 259.815485 
L 272.193417 256.563546 
L 269.950977 252.869877 
L 267.708537 248.657404 
L 265.466096 243.833853 
L 263.223656 238.289054 
L 260.981216 231.892296 
L 258.738775 224.490304 
L 257.243815 218.911086 
L 255.748855 212.74999 
L 254.253894 205.947018 
L 252.758934 198.441568 
L 250.516494 185.742158 
L 248.274054 171.183464 
L 246.031613 154.727764 
L 243.789173 136.556958 
L 237.061852 79.779894 
L 235.566892 69.60981 
L 234.071931 61.586468 
L 233.324451 58.537842 
L 232.576971 56.192896 
L 231.829491 54.579082 
L 231.082011 53.706667 
L 230.334531 53.568 
L 229.587051 54.137791 
L 228.839571 55.374406 
L 228.09209 57.222041 
L 227.34461 59.61359 
L 225.84965 65.723339 
L 224.35469 73.067016 
L 218.374849 104.061071 
L 216.879889 110.556126 
L 215.384929 116.294912 
L 213.889968 121.306952 
L 212.395008 125.682431 
L 210.152568 131.362844 
L 204.920207 143.819546 
L 203.425247 148.055933 
L 201.930286 152.864429 
L 200.435326 158.296527 
L 198.192886 167.542055 
L 195.202965 181.298001 
L 190.718085 202.338111 
L 188.475644 212.035576 
L 186.233204 220.845638 
L 183.990764 228.695839 
L 181.748323 235.606524 
L 179.505883 241.649393 
L 177.263443 246.918201 
L 175.021002 251.510942 
L 172.778562 255.520361 
L 170.536122 259.029715 
L 168.293681 262.11152 
L 166.051241 264.82784 
L 163.808801 267.231275 
L 161.56636 269.366179 
L 158.57644 271.85866 
L 155.586519 274.012075 
L 152.596599 275.884343 
L 149.606678 277.521887 
L 145.869278 279.295058 
L 142.131877 280.817453 
L 137.646997 282.376155 
L 133.162116 283.698352 
L 127.929755 285.002318 
L 121.949914 286.243703 
L 115.222593 287.393712 
L 107.747792 288.436823 
L 98.778031 289.443121 
L 88.313309 290.36781 
L 76.353627 291.188002 
L 62.151505 291.931365 
L 56.919144 292.157813 
L 56.919144 292.157813 
" style="fill:none;stroke:#d62728;stroke-linecap:square;stroke-width:2;"/>
   </g>
   <g id="patch_3">
    <path d="M 57.6 307.584 
L 57.6 41.472 
" style="fill:none;stroke:#000000;stroke-linecap:square;stroke-linejoin:miter;stroke-width:0.8;"/>
   </g>
   <g id="patch_4">
    <path d="M 414.72 307.584 
L 414.72 41.472 
" style="fill:none;stroke:#000000;stroke-linecap:square;stroke-linejoin:miter;stroke-width:0.8;"/>
   </g>
   <g id="patch_5">
    <path d="M 57.6 307.584 
L 414.72 307.584 
" style="fill:none;stroke:#000000;stroke-linecap:square;stroke-linejoin:miter;stroke-width:0.8;"/>
   </g>
   <g id="patch_6">
    <path d="M 57.6 41.472 
L 414.72 41.472 
" style="fill:none;stroke:#000000;stroke-linecap:square;stroke-linejoin:miter;stroke-width:0.8;"/>
   </g>
   <g id="text_22">
    <!-- Espectro para los distintos perfiles -->
    <g transform="translate(132.564375 35.472)scale(0.12 -0.12)">
     <defs>
      <path d="M 9.8125 72.90625 
L 55.90625 72.90625 
L 55.90625 64.59375 
L 19.671875 64.59375 
L 19.671875 43.015625 
L 54.390625 43.015625 
L 54.390625 34.71875 
L 19.671875 34.71875 
L 19.671875 8.296875 
L 56.78125 8.296875 
L 56.78125 0 
L 9.8125 0 
z
" id="DejaVuSans-69"/>
      <path d="M 44.28125 53.078125 
L 44.28125 44.578125 
Q 40.484375 46.53125 36.375 47.5 
Q 32.28125 48.484375 27.875 48.484375 
Q 21.1875 48.484375 17.84375 46.4375 
Q 14.5 44.390625 14.5 40.28125 
Q 14.5 37.15625 16.890625 35.375 
Q 19.28125 33.59375 26.515625 31.984375 
L 29.59375 31.296875 
Q 39.15625 29.25 43.1875 25.515625 
Q 47.21875 21.78125 47.21875 15.09375 
Q 47.21875 7.46875 41.1875 3.015625 
Q 35.15625 -1.421875 24.609375 -1.421875 
Q 20.21875 -1.421875 15.453125 -0.5625 
Q 10.6875 0.296875 5.421875 2 
L 5.421875 11.28125 
Q 10.40625 8.6875 15.234375 7.390625 
Q 20.0625 6.109375 24.8125 6.109375 
Q 31.15625 6.109375 34.5625 8.28125 
Q 37.984375 10.453125 37.984375 14.40625 
Q 37.984375 18.0625 35.515625 20.015625 
Q 33.0625 21.96875 24.703125 23.78125 
L 21.578125 24.515625 
Q 13.234375 26.265625 9.515625 29.90625 
Q 5.8125 33.546875 5.8125 39.890625 
Q 5.8125 47.609375 11.28125 51.796875 
Q 16.75 56 26.8125 56 
Q 31.78125 56 36.171875 55.265625 
Q 40.578125 54.546875 44.28125 53.078125 
z
" id="DejaVuSans-115"/>
      <path d="M 48.78125 52.59375 
L 48.78125 44.1875 
Q 44.96875 46.296875 41.140625 47.34375 
Q 37.3125 48.390625 33.40625 48.390625 
Q 24.65625 48.390625 19.8125 42.84375 
Q 14.984375 37.3125 14.984375 27.296875 
Q 14.984375 17.28125 19.8125 11.734375 
Q 24.65625 6.203125 33.40625 6.203125 
Q 37.3125 6.203125 41.140625 7.25 
Q 44.96875 8.296875 48.78125 10.40625 
L 48.78125 2.09375 
Q 45.015625 0.34375 40.984375 -0.53125 
Q 36.96875 -1.421875 32.421875 -1.421875 
Q 20.0625 -1.421875 12.78125 6.34375 
Q 5.515625 14.109375 5.515625 27.296875 
Q 5.515625 40.671875 12.859375 48.328125 
Q 20.21875 56 33.015625 56 
Q 37.15625 56 41.109375 55.140625 
Q 45.0625 54.296875 48.78125 52.59375 
z
" id="DejaVuSans-99"/>
      <path d="M 18.3125 70.21875 
L 18.3125 54.6875 
L 36.8125 54.6875 
L 36.8125 47.703125 
L 18.3125 47.703125 
L 18.3125 18.015625 
Q 18.3125 11.328125 20.140625 9.421875 
Q 21.96875 7.515625 27.59375 7.515625 
L 36.8125 7.515625 
L 36.8125 0 
L 27.59375 0 
Q 17.1875 0 13.234375 3.875 
Q 9.28125 7.765625 9.28125 18.015625 
L 9.28125 47.703125 
L 2.6875 47.703125 
L 2.6875 54.6875 
L 9.28125 54.6875 
L 9.28125 70.21875 
z
" id="DejaVuSans-116"/>
      <path d="M 41.109375 46.296875 
Q 39.59375 47.171875 37.8125 47.578125 
Q 36.03125 48 33.890625 48 
Q 26.265625 48 22.1875 43.046875 
Q 18.109375 38.09375 18.109375 28.8125 
L 18.109375 0 
L 9.078125 0 
L 9.078125 54.6875 
L 18.109375 54.6875 
L 18.109375 46.1875 
Q 20.953125 51.171875 25.484375 53.578125 
Q 30.03125 56 36.53125 56 
Q 37.453125 56 38.578125 55.875 
Q 39.703125 55.765625 41.0625 55.515625 
z
" id="DejaVuSans-114"/>
      <path d="M 30.609375 48.390625 
Q 23.390625 48.390625 19.1875 42.75 
Q 14.984375 37.109375 14.984375 27.296875 
Q 14.984375 17.484375 19.15625 11.84375 
Q 23.34375 6.203125 30.609375 6.203125 
Q 37.796875 6.203125 41.984375 11.859375 
Q 46.1875 17.53125 46.1875 27.296875 
Q 46.1875 37.015625 41.984375 42.703125 
Q 37.796875 48.390625 30.609375 48.390625 
z
M 30.609375 56 
Q 42.328125 56 49.015625 48.375 
Q 55.71875 40.765625 55.71875 27.296875 
Q 55.71875 13.875 49.015625 6.21875 
Q 42.328125 -1.421875 30.609375 -1.421875 
Q 18.84375 -1.421875 12.171875 6.21875 
Q 5.515625 13.875 5.515625 27.296875 
Q 5.515625 40.765625 12.171875 48.375 
Q 18.84375 56 30.609375 56 
z
" id="DejaVuSans-111"/>
      <path d="M 34.28125 27.484375 
Q 23.390625 27.484375 19.1875 25 
Q 14.984375 22.515625 14.984375 16.5 
Q 14.984375 11.71875 18.140625 8.90625 
Q 21.296875 6.109375 26.703125 6.109375 
Q 34.1875 6.109375 38.703125 11.40625 
Q 43.21875 16.703125 43.21875 25.484375 
L 43.21875 27.484375 
z
M 52.203125 31.203125 
L 52.203125 0 
L 43.21875 0 
L 43.21875 8.296875 
Q 40.140625 3.328125 35.546875 0.953125 
Q 30.953125 -1.421875 24.3125 -1.421875 
Q 15.921875 -1.421875 10.953125 3.296875 
Q 6 8.015625 6 15.921875 
Q 6 25.140625 12.171875 29.828125 
Q 18.359375 34.515625 30.609375 34.515625 
L 43.21875 34.515625 
L 43.21875 35.40625 
Q 43.21875 41.609375 39.140625 45 
Q 35.0625 48.390625 27.6875 48.390625 
Q 23 48.390625 18.546875 47.265625 
Q 14.109375 46.140625 10.015625 43.890625 
L 10.015625 52.203125 
Q 14.9375 54.109375 19.578125 55.046875 
Q 24.21875 56 28.609375 56 
Q 40.484375 56 46.34375 49.84375 
Q 52.203125 43.703125 52.203125 31.203125 
z
" id="DejaVuSans-97"/>
      <path d="M 9.421875 75.984375 
L 18.40625 75.984375 
L 18.40625 0 
L 9.421875 0 
z
" id="DejaVuSans-108"/>
      <path d="M 45.40625 46.390625 
L 45.40625 75.984375 
L 54.390625 75.984375 
L 54.390625 0 
L 45.40625 0 
L 45.40625 8.203125 
Q 42.578125 3.328125 38.25 0.953125 
Q 33.9375 -1.421875 27.875 -1.421875 
Q 17.96875 -1.421875 11.734375 6.484375 
Q 5.515625 14.40625 5.515625 27.296875 
Q 5.515625 40.1875 11.734375 48.09375 
Q 17.96875 56 27.875 56 
Q 33.9375 56 38.25 53.625 
Q 42.578125 51.265625 45.40625 46.390625 
z
M 14.796875 27.296875 
Q 14.796875 17.390625 18.875 11.75 
Q 22.953125 6.109375 30.078125 6.109375 
Q 37.203125 6.109375 41.296875 11.75 
Q 45.40625 17.390625 45.40625 27.296875 
Q 45.40625 37.203125 41.296875 42.84375 
Q 37.203125 48.484375 30.078125 48.484375 
Q 22.953125 48.484375 18.875 42.84375 
Q 14.796875 37.203125 14.796875 27.296875 
z
" id="DejaVuSans-100"/>
      <path d="M 9.421875 54.6875 
L 18.40625 54.6875 
L 18.40625 0 
L 9.421875 0 
z
M 9.421875 75.984375 
L 18.40625 75.984375 
L 18.40625 64.59375 
L 9.421875 64.59375 
z
" id="DejaVuSans-105"/>
      <path d="M 54.890625 33.015625 
L 54.890625 0 
L 45.90625 0 
L 45.90625 32.71875 
Q 45.90625 40.484375 42.875 44.328125 
Q 39.84375 48.1875 33.796875 48.1875 
Q 26.515625 48.1875 22.3125 43.546875 
Q 18.109375 38.921875 18.109375 30.90625 
L 18.109375 0 
L 9.078125 0 
L 9.078125 54.6875 
L 18.109375 54.6875 
L 18.109375 46.1875 
Q 21.34375 51.125 25.703125 53.5625 
Q 30.078125 56 35.796875 56 
Q 45.21875 56 50.046875 50.171875 
Q 54.890625 44.34375 54.890625 33.015625 
z
" id="DejaVuSans-110"/>
      <path d="M 37.109375 75.984375 
L 37.109375 68.5 
L 28.515625 68.5 
Q 23.6875 68.5 21.796875 66.546875 
Q 19.921875 64.59375 19.921875 59.515625 
L 19.921875 54.6875 
L 34.71875 54.6875 
L 34.71875 47.703125 
L 19.921875 47.703125 
L 19.921875 0 
L 10.890625 0 
L 10.890625 47.703125 
L 2.296875 47.703125 
L 2.296875 54.6875 
L 10.890625 54.6875 
L 10.890625 58.5 
Q 10.890625 67.625 15.140625 71.796875 
Q 19.390625 75.984375 28.609375 75.984375 
z
" id="DejaVuSans-102"/>
     </defs>
     <use xlink:href="#DejaVuSans-69"/>
     <use x="63.183594" xlink:href="#DejaVuSans-115"/>
     <use x="115.283203" xlink:href="#DejaVuSans-112"/>
     <use x="178.759766" xlink:href="#DejaVuSans-101"/>
     <use x="240.283203" xlink:href="#DejaVuSans-99"/>
     <use x="295.263672" xlink:href="#DejaVuSans-116"/>
     <use x="334.472656" xlink:href="#DejaVuSans-114"/>
     <use x="373.335938" xlink:href="#DejaVuSans-111"/>
     <use x="434.517578" xlink:href="#DejaVuSans-32"/>
     <use x="466.304688" xlink:href="#DejaVuSans-112"/>
     <use x="529.78125" xlink:href="#DejaVuSans-97"/>
     <use x="591.060547" xlink:href="#DejaVuSans-114"/>
     <use x="632.173828" xlink:href="#DejaVuSans-97"/>
     <use x="693.453125" xlink:href="#DejaVuSans-32"/>
     <use x="725.240234" xlink:href="#DejaVuSans-108"/>
     <use x="753.023438" xlink:href="#DejaVuSans-111"/>
     <use x="814.205078" xlink:href="#DejaVuSans-115"/>
     <use x="866.304688" xlink:href="#DejaVuSans-32"/>
     <use x="898.091797" xlink:href="#DejaVuSans-100"/>
     <use x="961.568359" xlink:href="#DejaVuSans-105"/>
     <use x="989.351562" xlink:href="#DejaVuSans-115"/>
     <use x="1041.451172" xlink:href="#DejaVuSans-116"/>
     <use x="1080.660156" xlink:href="#DejaVuSans-105"/>
     <use x="1108.443359" xlink:href="#DejaVuSans-110"/>
     <use x="1171.822266" xlink:href="#DejaVuSans-116"/>
     <use x="1211.03125" xlink:href="#DejaVuSans-111"/>
     <use x="1272.212891" xlink:href="#DejaVuSans-115"/>
     <use x="1324.3125" xlink:href="#DejaVuSans-32"/>
     <use x="1356.099609" xlink:href="#DejaVuSans-112"/>
     <use x="1419.576172" xlink:href="#DejaVuSans-101"/>
     <use x="1481.099609" xlink:href="#DejaVuSans-114"/>
     <use x="1522.212891" xlink:href="#DejaVuSans-102"/>
     <use x="1557.417969" xlink:href="#DejaVuSans-105"/>
     <use x="1585.201172" xlink:href="#DejaVuSans-108"/>
     <use x="1612.984375" xlink:href="#DejaVuSans-101"/>
     <use x="1674.507812" xlink:href="#DejaVuSans-115"/>
    </g>
   </g>
   <g id="legend_1">
    <g id="patch_7">
     <path d="M 268.440313 108.1845 
L 407.72 108.1845 
Q 409.72 108.1845 409.72 106.1845 
L 409.72 48.472 
Q 409.72 46.472 407.72 46.472 
L 268.440313 46.472 
Q 266.440313 46.472 266.440313 48.472 
L 266.440313 106.1845 
Q 266.440313 108.1845 268.440313 108.1845 
z
" style="fill:#ffffff;opacity:0.8;stroke:#cccccc;stroke-linejoin:miter;"/>
    </g>
    <g id="line2d_23">
     <path d="M 270.440313 54.570438 
L 290.440313 54.570438 
" style="fill:none;stroke:#1f77b4;stroke-linecap:square;stroke-width:2;"/>
    </g>
    <g id="line2d_24"/>
    <g id="text_23">
     <!--  Perfil en R = 0 mm -->
     <g transform="translate(298.440313 58.070438)scale(0.1 -0.1)">
      <defs>
       <path d="M 19.671875 64.796875 
L 19.671875 37.40625 
L 32.078125 37.40625 
Q 38.96875 37.40625 42.71875 40.96875 
Q 46.484375 44.53125 46.484375 51.125 
Q 46.484375 57.671875 42.71875 61.234375 
Q 38.96875 64.796875 32.078125 64.796875 
z
M 9.8125 72.90625 
L 32.078125 72.90625 
Q 44.34375 72.90625 50.609375 67.359375 
Q 56.890625 61.8125 56.890625 51.125 
Q 56.890625 40.328125 50.609375 34.8125 
Q 44.34375 29.296875 32.078125 29.296875 
L 19.671875 29.296875 
L 19.671875 0 
L 9.8125 0 
z
" id="DejaVuSans-80"/>
       <path d="M 44.390625 34.1875 
Q 47.5625 33.109375 50.5625 29.59375 
Q 53.5625 26.078125 56.59375 19.921875 
L 66.609375 0 
L 56 0 
L 46.6875 18.703125 
Q 43.0625 26.03125 39.671875 28.421875 
Q 36.28125 30.8125 30.421875 30.8125 
L 19.671875 30.8125 
L 19.671875 0 
L 9.8125 0 
L 9.8125 72.90625 
L 32.078125 72.90625 
Q 44.578125 72.90625 50.734375 67.671875 
Q 56.890625 62.453125 56.890625 51.90625 
Q 56.890625 45.015625 53.6875 40.46875 
Q 50.484375 35.9375 44.390625 34.1875 
z
M 19.671875 64.796875 
L 19.671875 38.921875 
L 32.078125 38.921875 
Q 39.203125 38.921875 42.84375 42.21875 
Q 46.484375 45.515625 46.484375 51.90625 
Q 46.484375 58.296875 42.84375 61.546875 
Q 39.203125 64.796875 32.078125 64.796875 
z
" id="DejaVuSans-82"/>
       <path d="M 10.59375 45.40625 
L 73.1875 45.40625 
L 73.1875 37.203125 
L 10.59375 37.203125 
z
M 10.59375 25.484375 
L 73.1875 25.484375 
L 73.1875 17.1875 
L 10.59375 17.1875 
z
" id="DejaVuSans-61"/>
      </defs>
      <use xlink:href="#DejaVuSans-32"/>
      <use x="31.787109" xlink:href="#DejaVuSans-80"/>
      <use x="88.464844" xlink:href="#DejaVuSans-101"/>
      <use x="149.988281" xlink:href="#DejaVuSans-114"/>
      <use x="191.101562" xlink:href="#DejaVuSans-102"/>
      <use x="226.306641" xlink:href="#DejaVuSans-105"/>
      <use x="254.089844" xlink:href="#DejaVuSans-108"/>
      <use x="281.873047" xlink:href="#DejaVuSans-32"/>
      <use x="313.660156" xlink:href="#DejaVuSans-101"/>
      <use x="375.183594" xlink:href="#DejaVuSans-110"/>
      <use x="438.5625" xlink:href="#DejaVuSans-32"/>
      <use x="470.349609" xlink:href="#DejaVuSans-82"/>
      <use x="539.832031" xlink:href="#DejaVuSans-32"/>
      <use x="571.619141" xlink:href="#DejaVuSans-61"/>
      <use x="655.408203" xlink:href="#DejaVuSans-32"/>
      <use x="687.195312" xlink:href="#DejaVuSans-48"/>
      <use x="750.818359" xlink:href="#DejaVuSans-32"/>
      <use x="782.605469" xlink:href="#DejaVuSans-109"/>
      <use x="880.017578" xlink:href="#DejaVuSans-109"/>
     </g>
    </g>
    <g id="line2d_25">
     <path d="M 270.440313 69.248563 
L 290.440313 69.248563 
" style="fill:none;stroke:#ff7f0e;stroke-linecap:square;stroke-width:2;"/>
    </g>
    <g id="line2d_26"/>
    <g id="text_24">
     <!--  Perfil en R = 3 mm -->
     <g transform="translate(298.440313 72.748563)scale(0.1 -0.1)">
      <use xlink:href="#DejaVuSans-32"/>
      <use x="31.787109" xlink:href="#DejaVuSans-80"/>
      <use x="88.464844" xlink:href="#DejaVuSans-101"/>
      <use x="149.988281" xlink:href="#DejaVuSans-114"/>
      <use x="191.101562" xlink:href="#DejaVuSans-102"/>
      <use x="226.306641" xlink:href="#DejaVuSans-105"/>
      <use x="254.089844" xlink:href="#DejaVuSans-108"/>
      <use x="281.873047" xlink:href="#DejaVuSans-32"/>
      <use x="313.660156" xlink:href="#DejaVuSans-101"/>
      <use x="375.183594" xlink:href="#DejaVuSans-110"/>
      <use x="438.5625" xlink:href="#DejaVuSans-32"/>
      <use x="470.349609" xlink:href="#DejaVuSans-82"/>
      <use x="539.832031" xlink:href="#DejaVuSans-32"/>
      <use x="571.619141" xlink:href="#DejaVuSans-61"/>
      <use x="655.408203" xlink:href="#DejaVuSans-32"/>
      <use x="687.195312" xlink:href="#DejaVuSans-51"/>
      <use x="750.818359" xlink:href="#DejaVuSans-32"/>
      <use x="782.605469" xlink:href="#DejaVuSans-109"/>
      <use x="880.017578" xlink:href="#DejaVuSans-109"/>
     </g>
    </g>
    <g id="line2d_27">
     <path d="M 270.440313 83.926688 
L 290.440313 83.926688 
" style="fill:none;stroke:#2ca02c;stroke-linecap:square;stroke-width:2;"/>
    </g>
    <g id="line2d_28"/>
    <g id="text_25">
     <!--  Perfil en R = 4.5 mm -->
     <g transform="translate(298.440313 87.426688)scale(0.1 -0.1)">
      <use xlink:href="#DejaVuSans-32"/>
      <use x="31.787109" xlink:href="#DejaVuSans-80"/>
      <use x="88.464844" xlink:href="#DejaVuSans-101"/>
      <use x="149.988281" xlink:href="#DejaVuSans-114"/>
      <use x="191.101562" xlink:href="#DejaVuSans-102"/>
      <use x="226.306641" xlink:href="#DejaVuSans-105"/>
      <use x="254.089844" xlink:href="#DejaVuSans-108"/>
      <use x="281.873047" xlink:href="#DejaVuSans-32"/>
      <use x="313.660156" xlink:href="#DejaVuSans-101"/>
      <use x="375.183594" xlink:href="#DejaVuSans-110"/>
      <use x="438.5625" xlink:href="#DejaVuSans-32"/>
      <use x="470.349609" xlink:href="#DejaVuSans-82"/>
      <use x="539.832031" xlink:href="#DejaVuSans-32"/>
      <use x="571.619141" xlink:href="#DejaVuSans-61"/>
      <use x="655.408203" xlink:href="#DejaVuSans-32"/>
      <use x="687.195312" xlink:href="#DejaVuSans-52"/>
      <use x="750.818359" xlink:href="#DejaVuSans-46"/>
      <use x="782.605469" xlink:href="#DejaVuSans-53"/>
      <use x="846.228516" xlink:href="#DejaVuSans-32"/>
      <use x="878.015625" xlink:href="#DejaVuSans-109"/>
      <use x="975.427734" xlink:href="#DejaVuSans-109"/>
     </g>
    </g>
    <g id="line2d_29">
     <path d="M 270.440313 98.604813 
L 290.440313 98.604813 
" style="fill:none;stroke:#d62728;stroke-linecap:square;stroke-width:2;"/>
    </g>
    <g id="line2d_30"/>
    <g id="text_26">
     <!--  Perfil en R = 5.8 mm -->
     <g transform="translate(298.440313 102.104813)scale(0.1 -0.1)">
      <use xlink:href="#DejaVuSans-32"/>
      <use x="31.787109" xlink:href="#DejaVuSans-80"/>
      <use x="88.464844" xlink:href="#DejaVuSans-101"/>
      <use x="149.988281" xlink:href="#DejaVuSans-114"/>
      <use x="191.101562" xlink:href="#DejaVuSans-102"/>
      <use x="226.306641" xlink:href="#DejaVuSans-105"/>
      <use x="254.089844" xlink:href="#DejaVuSans-108"/>
      <use x="281.873047" xlink:href="#DejaVuSans-32"/>
      <use x="313.660156" xlink:href="#DejaVuSans-101"/>
      <use x="375.183594" xlink:href="#DejaVuSans-110"/>
      <use x="438.5625" xlink:href="#DejaVuSans-32"/>
      <use x="470.349609" xlink:href="#DejaVuSans-82"/>
      <use x="539.832031" xlink:href="#DejaVuSans-32"/>
      <use x="571.619141" xlink:href="#DejaVuSans-61"/>
      <use x="655.408203" xlink:href="#DejaVuSans-32"/>
      <use x="687.195312" xlink:href="#DejaVuSans-53"/>
      <use x="750.818359" xlink:href="#DejaVuSans-46"/>
      <use x="782.605469" xlink:href="#DejaVuSans-56"/>
      <use x="846.228516" xlink:href="#DejaVuSans-32"/>
      <use x="878.015625" xlink:href="#DejaVuSans-109"/>
      <use x="975.427734" xlink:href="#DejaVuSans-109"/>
     </g>
    </g>
   </g>
  </g>
 </g>
 <defs>
  <clipPath id="p83d7c990e4">
   <rect height="266.112" width="357.12" x="57.6" y="41.472"/>
  </clipPath>
 </defs>
</svg>
